# xmcd
#
# Track frame offsets: 
#        150
#        14275
#        26487
#        37662
#        51172
#        70800
#        88017
#        107287
#        127672
#        146277
#
# Disc length: 2216 seconds
#
# Revision: 2
# Processed by: cddbd v1.5.2PL0 Copyright (c) Steve Scherf et al.
# Submitted via: ExactAudioCopyFreeDBPlugin 1.0
#
DISCID=6c08a60a
DTITLE=Gianni Morandi - Gianni Morandi - I Miti Della Musica
DYEAR=1900
DGENRE=Country
TTITLE0=Gianni Morandi - C'era Un Ragazzo Che Come Me Amava
TTITLE1=Gianni Morandi - Un Mondo D'amore
TTITLE2=Gianni Morandi - Scende La Pioggia
TTITLE3=Gianni Morandi - Parta Più Piano
TTITLE4=Gianni Morandi - Canzoni Stonate
TTITLE5=Gianni Morandi - Grazie Perché
TTITLE6=Gianni Morandi - Nel Silenzio Spiende
TTITLE7=Gianni Morandi - 1950
TTITLE8=Gianni Morandi - Uno Su Mille
TTITLE9=Gianni Morandi - Bello Signora
EXTD=
EXTT0=
EXTT1=
EXTT2=
EXTT3=
EXTT4=
EXTT5=
EXTT6=
EXTT7=
EXTT8=
EXTT9=
PLAYORDER=
